Coordinates
version=1
nRows=10
nColumns=40
inDegrees=yes

Units are S.I. units (second, meters, Newtons, ...)
Angles are in degrees.

endheader
time	pelvis_tilt	pelvis_list	pelvis_rotation	pelvis_tx	pelvis_ty	pelvis_tz	hip_flexion_r	hip_adduction_r	hip_rotation_r	knee_angle_r	knee_angle_r_beta	ankle_angle_r	subtalar_angle_r	mtp_angle_r	hip_flexion_l	hip_adduction_l	hip_rotation_l	knee_angle_l	knee_angle_l_beta	ankle_angle_l	subtalar_angle_l	mtp_angle_l	lumbar_extension	lumbar_bending	lumbar_rotation	arm_flex_r	arm_add_r	arm_rot_r	elbow_flex_r	pro_sup_r	wrist_flex_r	wrist_dev_r	arm_flex_l	arm_add_l	arm_rot_l	elbow_flex_l	pro_sup_l	wrist_flex_l	wrist_dev_l
     57.92314286	     -5.74900892	     -3.93528140	     -4.99550195	      1.14257359	      0.92897683	      0.43543304	     24.26792526	     -0.44812916	    -13.58834274	      8.63701298	      8.63701298	      1.11700215	      9.89014014	      7.96109543	      8.46958279	     -6.55353046	    -12.46663213	     16.88876301	     16.88876301	     13.17452003	    -13.25655559	     -5.01827808	     -9.94832026	      4.47872888	      1.67874964	     -4.04155461	    -14.59998494	      2.09569593	     27.65052263	     46.53697718	      0.00000000	      0.00000000	     13.98718636	    -13.60443692	    -12.77987996	     78.81416622	     47.18821989	      0.00000000	      0.00000000
     57.93628571	     -5.93645225	     -3.81141301	     -5.10909551	      1.14361541	      0.92811126	      0.43771970	     24.00327876	     -0.23484110	    -14.00467681	      8.61302440	      8.61302440	      1.12941326	      9.69038250	      7.91380982	      8.16403905	     -6.54096044	    -12.55237494	     16.82266010	     16.82266010	     13.45394481	    -13.34498082	     -5.08016104	     -9.65950749	      4.39981690	      1.75675238	     -3.93673500	    -14.58420918	      2.09172541	     27.69460746	     46.53590246	      0.00000000	      0.00000000	     13.89202794	    -13.54898222	    -12.76188307	     78.75906887	     47.18642898	      0.00000000	      0.00000000
     57.94942857	     -5.80627604	     -3.78881695	     -5.19106296	      1.14543331	      0.92781028	      0.44011483	     23.00748444	      0.09711770	    -14.38143245	      8.15082768	      8.15082768	     -0.51395176	      9.45933017	      3.07427142	      7.15917674	     -6.56296407	    -12.75940358	     16.22390870	     16.22390870	     14.01986915	    -12.74570512	     -4.38925133	     -9.63488705	      4.52760427	      1.88996413	     -3.76311242	    -14.53056653	      1.80563964	     27.75509897	     46.52247302	      0.00000000	      0.00000000	     13.91156802	    -13.27824757	    -12.64686159	     77.36388648	     47.22694310	      0.00000000	      0.00000000
     57.96257143	     -5.81643493	     -3.88147478	     -5.24896266	      1.14716538	      0.92729741	      0.44258660	     22.47511275	      0.41698140	    -14.61144463	      8.61048381	      8.61048381	     -0.34424942	      9.05679482	      2.76237834	      6.53368912	     -6.75703304	    -12.74797164	     16.02235012	     16.02235012	     14.32950593	    -12.75090977	     -4.34503963	     -9.47481429	      4.76678305	      1.93577796	     -3.46123233	    -14.50465589	      1.78040771	     27.89708907	     46.51958457	      0.00000000	      0.00000000	     13.44498477	    -13.04615882	    -12.51870389	     77.08267880	     47.21329118	      0.00000000	      0.00000000
     57.97571429	     -5.65221530	     -3.76657651	     -5.30183036	      1.14922176	      0.92684807	      0.44519795	     21.86046595	      0.55481028	    -13.97186303	      9.19886218	      9.19886218	     -1.38383789	      7.25621794	     -1.88905863	      5.65335163	     -6.70291627	    -12.87340084	     15.76021587	     15.76021587	     15.33856742	    -12.20317044	     -2.59492841	     -9.42659972	      4.74878171	      1.97866108	     -3.14875577	    -14.52868374	      1.49259352	     28.23021891	     46.49794595	      0.00000000	      0.00000000	     13.41849590	    -13.03593152	    -12.36309224	     75.58682073	     47.23407995	      0.00000000	      0.00000000
     57.98885714	     -5.47141310	     -3.77928623	     -5.33783779	      1.15130256	      0.92645549	      0.44778999	     21.46219514	      0.66215408	    -13.73399841	     10.36022194	     10.36022194	     -0.96682620	      6.35686095	     -2.73077024	      4.82094405	     -6.79753786	    -12.90545159	     15.58562036	     15.58562036	     15.76569936	    -12.12230904	     -2.21709763	     -9.42577262	      4.89861359	      1.84776656	     -2.60210321	    -14.50623986	      1.40713866	     28.55488804	     46.48908454	      0.00000000	      0.00000000	     12.84130200	    -12.99322036	    -12.25568405	     74.77597108	     47.21948273	      0.00000000	      0.00000000
     58.00200000	     -5.28181559	     -3.83328298	     -5.33382458	      1.15346691	      0.92604875	      0.45050326	     21.02455220	      0.87259249	    -13.02411244	     11.31804784	     11.31804784	     -1.05748334	      4.69094006	     -5.09102542	      4.19236751	     -6.98783807	    -12.81626990	     15.88192911	     15.88192911	     16.95647209	    -11.86226155	     -0.07246393	     -9.40703138	      5.12902643	      2.02510659	     -2.24567478	    -14.57121943	      1.19797521	     28.98472971	     46.46080721	      0.00000000	      0.00000000	     12.72013027	    -12.70088652	    -12.09988145	     72.97150940	     47.21814951	      0.00000000	      0.00000000
     58.01514286	     -5.00148123	     -3.90125456	     -5.29685190	      1.15563645	      0.92573524	      0.45319619	     20.71845013	      0.96991511	    -12.63951015	     12.67318932	     12.67318932	     -0.29880601	      3.79325145	     -5.75846229	      3.52797937	     -7.20271006	    -12.69882942	     16.21458683	     16.21458683	     17.35206319	    -12.04076882	      0.33616976	     -9.49824550	      5.34799350	      1.85004973	     -1.52149732	    -14.59562835	      1.09975494	     29.39992068	     46.45092911	      0.00000000	      0.00000000	     12.07792880	    -12.68224129	    -11.99816850	     71.90961066	     47.19669999	      0.00000000	      0.00000000
     58.02828571	     -4.75398292	     -3.97610377	     -5.20985896	      1.15765978	      0.92543712	      0.45593152	     20.50757235	      1.09142694	    -12.11621258	     13.98606101	     13.98606101	      0.50209883	      2.65892871	     -6.36946237	      3.14035407	     -7.47711283	    -12.45144580	     16.96184328	     16.96184328	     17.74260643	    -12.43246557	      1.00088017	     -9.56638404	      5.59906053	      1.70140918	     -0.75586924	    -14.61067073	      1.00985861	     29.83794039	     46.43935988	      0.00000000	      0.00000000	     11.50683993	    -12.57726767	    -11.94244427	     70.37719185	     47.17098573	      0.00000000	      0.00000000
     58.04142857	     -4.45117096	     -4.10429493	     -5.09671778	      1.15957016	      0.92532959	      0.45874066	     20.22514662	      1.27410767	    -11.65866172	     15.15500172	     15.15500172	      1.29878315	      1.70929439	     -6.83139316	      2.91445057	     -7.86267200	    -12.10285693	     18.10687937	     18.10687937	     18.07948392	    -12.99895784	      1.61168467	     -9.70461171	      5.88772824	      1.60199907	      0.04304263	    -14.68182359	      0.91375113	     30.26843838	     46.42939180	      0.00000000	      0.00000000	     10.99959043	    -12.39609541	    -11.88398064	     68.69716290	     47.14195271	      0.00000000	      0.00000000
